<?xml version="1.0" encoding="utf-8"?>
<!-- Generator: Adobe Illustrator 16.0.0, SVG Export Plug-In . SVG Version: 6.00 Build 0)  -->
<!DOCTYPE svg PUBLIC "-//W3C//DTD SVG 1.1//EN" "http://www.w3.org/Graphics/SVG/1.1/DTD/svg11.dtd">
<svg version="1.1" id="Layer_3" xmlns="http://www.w3.org/2000/svg" xmlns:xlink="http://www.w3.org/1999/xlink" x="0px" y="0px"
	 width="596.57px" height="484.229px" viewBox="-488 544.785 596.57 484.229" enable-background="new -488 544.785 596.57 484.229"
	 xml:space="preserve">
<path d="M46.59,666.164c0,5.166,0,10.33,0,15.496c0,161.41-122.672,347.354-347.354,347.354c-68.438,0-133.002-20.66-187.235-54.233
	c9.039,1.292,19.369,1.292,29.699,1.292c56.816,0,109.759-19.369,151.08-51.652c-52.942-1.291-98.138-36.155-113.633-85.225
	c7.748,1.292,15.496,2.584,23.243,2.584c11.621,0,21.952-1.292,32.282-3.875c-55.525-11.621-98.138-60.689-98.138-120.088v-1.292
	c16.786,9.04,34.864,14.204,55.524,15.495c-32.281-21.951-54.233-59.398-54.233-102.01c0-21.953,6.456-43.904,16.786-61.982
	c60.69,73.604,149.789,122.672,251.8,127.837c-2.583-9.039-2.583-18.077-2.583-28.408c0-67.146,54.234-122.671,122.672-122.671
	c34.865,0,67.146,14.203,89.099,38.738c28.408-5.166,54.233-15.496,77.477-29.699c-9.039,28.408-28.408,52.941-54.233,67.146
	c24.534-2.583,47.777-9.039,69.729-19.369C90.493,627.426,69.833,649.378,46.59,666.164z"/>
</svg>
