<?xml version="1.0" encoding="utf-8"?>
<!-- Generator: Adobe Illustrator 16.0.0, SVG Export Plug-In . SVG Version: 6.00 Build 0)  -->
<!DOCTYPE svg PUBLIC "-//W3C//DTD SVG 1.1//EN" "http://www.w3.org/Graphics/SVG/1.1/DTD/svg11.dtd">
<svg version="1.1" id="Layer_1" xmlns="http://www.w3.org/2000/svg" xmlns:xlink="http://www.w3.org/1999/xlink" x="0px" y="0px"
	 width="595.48px" height="693.991px" viewBox="-349.017 269.85 595.48 693.991"
	 enable-background="new -349.017 269.85 595.48 693.991" xml:space="preserve">
<g>
	<polygon points="-238.015,269.85 -196.924,269.85 -170.508,375.147 -167.939,375.147 -142.807,269.85 -101.532,269.85 
		-148.861,423.944 -148.861,533.094 -189.586,533.094 -189.586,428.896 	"/>
	<path d="M-103.367,383.402c0-15.042,4.771-26.966,14.677-35.955c9.723-8.989,22.747-13.392,39.258-13.392
		c14.857,0,27.148,4.77,36.688,14.125s14.31,21.463,14.31,36.322v100.345c0,16.693-4.771,29.72-14.125,39.074
		c-9.355,9.539-22.197,14.125-38.707,14.125c-15.776,0-28.435-4.953-37.974-14.676c-9.539-9.724-14.31-22.931-14.31-39.44V383.402
		H-103.367z M-66.128,487.6c0,5.319,1.284,9.539,3.854,12.476c2.567,2.935,6.236,4.401,11.007,4.401
		c4.953,0,8.806-1.468,11.74-4.401c2.936-2.937,4.402-7.155,4.402-12.291V381.935c0-4.219-1.468-7.705-4.402-10.273
		c-2.936-2.568-6.787-3.853-11.558-3.853c-4.401,0-8.07,1.284-10.823,3.853c-2.752,2.568-4.22,6.054-4.22,10.273V487.6z"/>
	<path d="M135.296,339.009v194.27H99.157v-21.463c-6.604,7.888-13.575,13.94-20.729,17.978c-7.154,4.037-14.127,6.237-20.913,6.237
		c-8.438,0-14.677-2.937-18.896-8.622c-4.22-5.87-6.421-14.492-6.421-26.05v-162.35h36.139v148.958c0,4.586,0.733,7.889,2.201,9.905
		c1.468,2.019,4.036,3.119,7.338,3.119c2.752,0,6.055-1.284,10.09-4.036s7.704-6.237,11.19-10.456v-147.49H135.296L135.296,339.009z
		"/>
</g>
<g>
	<path d="M11.286,722.593c-2.568,0-5.136,0.552-7.704,1.835c-2.567,1.284-4.953,3.303-7.521,5.87v121.074
		c2.936,3.118,5.87,5.503,8.622,6.787c2.751,1.468,5.687,2.018,8.805,2.018c4.403,0,7.705-1.284,9.723-4.035
		c2.02-2.752,3.119-7.153,3.119-13.392V742.405c0-6.604-1.284-11.559-3.853-14.859C19.908,724.245,16.24,722.593,11.286,722.593z"/>
	<path d="M144.101,723.327c-5.688,0-9.905,1.834-12.29,5.319c-2.568,3.484-3.669,9.354-3.669,17.428v19.629h31.919v-19.629
		c0-8.072-1.284-13.942-3.669-17.428C153.64,724.979,149.605,723.327,144.101,723.327z"/>
	<path d="M242.244,651.783c0-46.962-38.522-84.937-86.036-84.937c-67.69-2.751-137.033-4.034-207.66-4.034
		c-70.626-0.185-139.969,1.101-207.659,4.034c-47.513,0-86.035,37.975-86.035,84.937c-2.752,37.239-4.036,74.295-3.854,111.535
		c-0.184,37.238,1.102,74.295,4.035,111.533c0,46.963,38.523,84.937,86.036,84.937c67.691,2.751,137.034,4.035,207.66,4.035
		c70.627,0.184,139.969-1.102,207.66-4.035c47.513,0,86.036-38.157,86.036-84.937c2.935-37.238,4.035-74.295,4.035-111.533
		C246.464,726.078,245.18,689.021,242.244,651.783z M-220.038,888.428h-40.725V663.34h-42.192v-38.156h124.742v38.156h-41.825
		V888.428L-220.038,888.428z M-75.483,888.428h-36.14v-21.463c-6.604,7.888-13.574,13.941-20.729,17.979
		c-7.154,4.034-14.125,6.236-20.912,6.236c-8.438,0-14.676-2.936-18.896-8.622c-4.219-5.87-6.42-14.491-6.42-26.05V694.159h36.14
		v148.957c0,4.587,0.732,7.889,2.201,9.905c1.468,2.02,4.035,3.119,7.338,3.119c2.751,0,6.054-1.283,10.089-4.035
		c4.036-2.753,7.705-6.237,11.189-10.456v-147.49h36.14V888.428L-75.483,888.428z M63.569,848.069
		c0,13.759-2.752,24.397-8.438,31.735c-5.686,7.338-13.759,11.008-24.582,11.008c-6.971,0-13.392-1.469-18.895-4.221
		c-5.503-2.751-10.64-7.153-15.409-13.208v14.859h-36.506V625h36.506v84.752c4.953-5.87,10.089-10.456,15.593-13.575
		c5.503-3.118,11.008-4.586,16.693-4.586c11.374,0,20.179,4.219,26.232,12.476c6.054,8.255,8.988,20.361,8.988,36.32V848.07
		L63.569,848.069L63.569,848.069z M197.116,795.788h-69.158v36.688c0,10.273,1.102,17.244,3.485,21.28
		c2.385,4.035,6.421,5.87,12.291,5.87c6.054,0,10.089-1.651,12.474-4.953s3.485-10.64,3.485-22.197v-13.574h37.24v14.676
		c0,19.996-4.587,34.854-13.575,44.944c-8.989,10.09-22.563,15.043-40.542,15.043c-16.144,0-28.801-5.32-38.156-15.961
		c-9.354-10.64-13.94-25.314-13.94-44.026V746.44c0-16.878,5.136-30.636,15.226-41.274c10.271-10.641,23.298-15.96,39.624-15.96
		c16.51,0,29.168,4.953,38.157,14.676c8.805,9.905,13.391,24.031,13.391,42.376L197.116,795.788L197.116,795.788z"/>
</g>
</svg>
